<svg width="300" height="300" viewBox="0 0 300 300" fill="none" xmlns="http://www.w3.org/2000/svg">
<path d="M188.089 57.8836C189.728 55.5357 191.368 53.1879 193.5 50.5279C194.49 50.1846 195.062 50.3038 195.474 50.0998C202.516 46.6135 204.86 47.6508 207.496 54.9214C208.007 56.3313 209.678 57.6092 211.123 58.3343C214.51 60.0347 217.009 62.3279 216.884 66.2866C216.738 70.8893 218.852 72.4733 223.227 72.4267C227.087 72.3857 231.207 72.1883 233.861 76.4515C235.251 79.7968 236.443 82.8448 237.928 85.743C239.029 87.8924 240.38 89.9463 241.848 91.8691C245.491 96.6428 249.265 101.317 252.969 106.283C253.017 106.689 253.083 106.844 253.116 107.34C253.394 108.775 253.705 109.868 253.982 111.227C254.01 111.662 254.071 111.83 254.086 112.358C254.337 113.866 254.635 115.014 254.945 116.523C256.217 120.513 257.269 124.316 261.858 125.176C261.858 125.176 261.881 125.099 261.771 125.454C261.915 127.555 262.168 129.302 262.458 131.448C262.356 132.897 262.218 133.948 261.912 135.308C261.742 136.034 261.74 136.452 261.737 136.87C261.737 136.87 261.818 136.862 261.462 136.75C259.254 138.281 257.64 140.386 255.508 141.49C246.416 146.198 237.17 150.611 227.655 155.104C226.51 155.369 225.692 155.661 224.547 155.903C223.801 155.971 223.382 156.09 222.644 156.177C221.537 156.421 220.75 156.697 219.707 156.961C219.293 157.017 219.137 157.085 218.648 157.113C217.486 157.359 216.655 157.645 215.465 157.919C213.734 158.297 212.362 158.687 210.608 159.051C208.758 159.328 207.29 159.629 205.465 159.887C204.398 159.938 203.688 160.033 202.606 160.075C200.794 160.335 199.355 160.649 197.528 160.942C194.421 161.658 191.701 162.394 188.655 163.103C187.525 163.371 186.72 163.667 185.673 163.944C185.429 163.925 184.987 164.129 184.646 164.1C183.224 164.387 182.143 164.703 180.682 165.019C175.353 167.283 170.123 169.087 165.514 171.907C156.796 177.242 148.434 183.16 139.663 188.926C139.2 189.311 138.999 189.605 138.847 189.901C138.897 189.903 138.893 189.803 138.633 189.897C138.193 190.303 138.012 190.616 137.523 191.036C135.113 193.03 133.012 194.916 130.662 196.923C130.266 197.373 130.118 197.701 129.696 198.216C125.367 203.388 121.312 208.373 117.256 213.359C116.801 213.18 116.346 213.002 115.891 212.824C117.579 199.732 114.686 187.315 110.971 174.64C109.656 170.799 108.349 167.337 107.002 163.499C100.6 145.046 91.0674 128.684 79.8566 112.84C73.3684 100.941 66.4158 89.6455 60.7474 77.7387C55.7079 67.153 57.7739 60.3664 66.3182 52.3414C67.639 51.1009 69.2941 50.2069 70.5632 48.9237C71.6496 47.8253 72.4042 46.3987 73.6027 44.9562C76.2293 40.4882 79.0736 35.6013 84.4601 36.9407C88.4382 37.9299 90.9476 37.0923 94.0875 35.3954C99.2244 32.6191 104.079 27.2772 110.59 33.5901C111.966 34.9246 115.373 34.2091 117.849 34.3499C119.5 34.4439 121.269 34.0091 122.795 34.4578C127.696 35.8986 131.546 34.2644 135.395 30.8811C140.876 30.376 145.936 29.5941 151.001 29.5581C154.627 29.5323 158.261 30.5054 162.138 31.2743C166.951 35.0808 171.919 38.2805 174.091 44.4661C176.951 45.454 176.681 46.6762 175.676 49.0247C171.581 58.5888 167.855 68.3106 163.795 78.2796C161.389 87.0287 159.18 95.4724 156.785 104.238C155.478 109.914 154.357 115.268 153.236 120.622C153.907 120.795 154.578 120.968 155.249 121.14C157.32 115.164 159.392 109.188 161.463 103.212C163.381 100.052 165.299 96.8917 167.532 93.2213C168.261 91.8141 168.675 90.9172 169.089 90.0202C169.089 90.0202 169.022 90.0229 169.379 89.9957C172.779 85.0751 175.975 80.2685 178.825 75.2652C182.074 69.5629 185.015 63.6851 188.089 57.8836Z" fill="black"/>
<path d="M227.981 155.131C237.171 150.61 246.416 146.198 255.508 141.49C257.64 140.386 259.254 138.281 261.454 136.71C260.424 138.857 259.497 141.585 257.593 142.896C246.387 150.615 234.593 157.124 220.806 159.138C216.731 159.734 212.742 160.908 208.155 161.798C207.395 162.105 207.194 162.433 206.992 162.76C190.176 164.552 174.455 168.877 159.878 178.288C146.79 186.736 133.548 194.866 125.108 208.153C118.484 218.581 113.154 229.9 107.964 241.153C101.065 256.115 94.4685 271.188 82.9349 283.336C79.3749 287.085 77.5911 287.125 74.2751 284.566C95.8893 264.586 107.493 239.329 113.314 210.139C113.068 204.118 112.604 198.869 112.14 193.62C112.14 193.62 112.262 193.415 112.285 192.895C111.919 191.14 111.53 189.905 111.142 188.671C110.636 185.378 110.131 182.085 109.761 178.125C110.257 176.645 110.618 175.832 110.979 175.018C114.687 187.315 117.579 199.732 115.891 212.824C116.346 213.002 116.802 213.18 117.257 213.359C121.312 208.373 125.367 203.388 129.902 198.051C130.559 197.4 130.735 197.101 130.912 196.802C133.012 194.916 135.113 193.03 137.746 190.897C138.484 190.368 138.689 190.086 138.894 189.803C138.894 189.803 138.897 189.903 139.079 189.774C139.482 189.376 139.703 189.106 139.924 188.837C148.434 183.16 156.796 177.242 165.514 171.906C170.123 169.087 175.353 167.283 181.028 165.023C182.832 164.728 183.909 164.428 184.987 164.129C184.987 164.129 185.43 163.925 186 163.948C187.374 163.691 188.178 163.41 188.982 163.13C191.701 162.394 194.421 161.658 197.908 160.959C200.109 160.707 201.544 160.418 202.978 160.129C203.688 160.033 204.398 159.938 205.853 159.909C208.063 159.676 209.526 159.376 210.989 159.077C212.362 158.687 213.734 158.297 215.8 157.931C217.322 157.688 218.151 157.42 218.98 157.153C219.137 157.085 219.294 157.017 220.025 156.965C221.387 156.723 222.175 156.466 222.963 156.208C223.382 156.09 223.801 155.971 224.879 155.911C226.352 155.69 227.167 155.41 227.981 155.131Z" fill="black"/>
<path d="M73.3057 45.1173C72.4043 46.3988 71.6497 47.8254 70.5633 48.9238C69.2942 50.207 67.6391 51.1009 66.3183 52.3414C57.774 60.3664 55.708 67.1531 60.7475 77.7388C66.4159 89.6455 73.3685 100.941 79.8447 113.21C79.8998 114.414 79.8725 114.91 79.8452 115.407C69.6121 104.028 62.6285 90.6189 57.2391 76.5527C52.4702 64.1059 57.9529 53.3042 71.984 45.171C72.8474 45.0645 73.0765 45.0909 73.3057 45.1173Z" fill="black"/>
<path d="M233.789 76.0908C231.207 72.1891 227.087 72.3865 223.227 72.4275C218.852 72.474 216.738 70.8901 216.884 66.2874C217.009 62.3286 214.51 60.0355 211.123 58.3351C209.678 57.61 208.007 56.3321 207.496 54.9222C204.86 47.6516 202.516 46.6143 195.474 50.1006C195.062 50.3046 194.49 50.1854 193.611 50.2013C194.146 46.3861 196.634 44.7048 200.449 44.9549C204.76 45.2376 207.918 47.3245 209.77 51.2579C210.182 52.1342 210.141 53.6138 210.765 53.94C216.45 56.9086 219.997 61.1641 220.397 67.8406C220.431 68.4077 222.791 69.0658 224.135 69.2807C228.2 69.9307 232.515 69.9231 234.714 74.8759C234.376 75.6331 234.082 75.862 233.789 76.0908Z" fill="black"/>
<path d="M79.9115 115.731C79.8725 114.911 79.8998 114.415 79.939 113.549C91.0675 128.684 100.6 145.046 106.979 163.763C106.498 164.549 105.682 164.954 105.556 164.798C104.875 163.962 104.366 162.986 103.798 162.058C103.678 161.759 103.559 161.46 103.252 160.427C102.6 158.475 102.135 157.257 101.67 156.04C101.571 155.786 101.471 155.532 101.184 154.583C99.88 151.931 98.7643 149.974 97.6485 148.017C97.5397 147.779 97.431 147.541 97.1681 146.788C96.9571 145.985 96.8533 145.718 96.7026 145.469C96.6059 145.285 96.5093 145.1 96.2045 144.424C95.5946 143.303 95.1928 142.674 94.7911 142.044C94.6659 141.79 94.5408 141.536 94.2103 140.749C93.9398 139.93 93.8312 139.662 93.6792 139.411C89.1121 131.626 84.545 123.84 79.9115 115.731Z" fill="black"/>
<path d="M163.993 77.9751C167.855 68.3114 171.581 58.5896 175.676 49.0255C176.681 46.677 176.951 45.4548 174.155 44.1718C174.356 43.0702 174.648 42.5575 174.94 42.0449C181.419 42.6934 181.641 43.3011 178.996 49.2223C174.368 59.5867 169.957 70.048 165.054 80.5182C164.433 79.7035 164.213 78.8393 163.993 77.9751Z" fill="black"/>
<path d="M233.861 76.4521C234.083 75.8617 234.376 75.6328 234.85 75.1895C236.707 77.886 238.205 80.9207 240.105 83.6794C243.019 87.9117 246.217 91.9478 249.277 96.0797C250.818 98.159 252.321 100.266 253.673 102.967C253.333 104.393 253.16 105.212 252.987 106.032C249.265 101.318 245.491 96.6433 241.848 91.8696C240.38 89.9469 239.029 87.893 237.928 85.7435C236.443 82.8454 235.251 79.7973 233.861 76.4521Z" fill="black"/>
<path d="M187.752 57.9678C185.015 63.6857 182.074 69.5635 178.825 75.2657C175.975 80.2691 172.779 85.0756 169.391 90.0272C172.293 83.4308 175.277 76.6306 178.876 70.1727C181.269 65.8793 184.539 62.0747 187.752 57.9678Z" fill="black"/>
<path d="M135.395 30.8818C134.801 30.6751 134.596 30.4523 134.181 30.1203C135.983 29.3798 137.932 28.5801 139.96 28.2113C143.985 27.4789 148.117 27.2492 152.089 26.3208C156.623 25.2611 160.153 26.8585 163.554 29.9736C163.034 30.6214 162.463 30.8275 161.892 31.0335C158.262 30.5061 154.628 29.533 151.001 29.5588C145.936 29.5948 140.876 30.3766 135.395 30.8818Z" fill="black"/>
<path d="M163.796 78.2803C164.213 78.8391 164.433 79.7034 164.876 80.8223C163.522 86.5693 161.83 92.033 160.444 97.5732C160.075 99.0467 160.646 100.755 160.675 103.013C159.741 104.555 158.917 105.44 158.093 106.325C157.719 105.522 157.345 104.719 156.971 103.917C159.18 95.473 161.389 87.0293 163.796 78.2803Z" fill="black"/>
<path d="M156.785 104.239C157.345 104.72 157.719 105.522 158.093 106.325C158.917 105.44 159.741 104.556 160.714 103.397C160.863 103.124 161.163 103.175 161.313 103.194C159.392 109.189 157.32 115.165 155.249 121.141C154.578 120.969 153.907 120.796 153.236 120.623C154.357 115.269 155.478 109.915 156.785 104.239Z" fill="black"/>
<path d="M252.969 106.283C253.16 105.212 253.333 104.392 253.694 103.321C254.787 106.22 255.467 109.457 256.651 112.498C258.233 116.561 260.205 120.471 261.934 124.811C257.269 124.316 256.217 120.513 254.982 116.158C254.715 114.289 254.424 113.144 254.133 111.998C254.071 111.83 254.01 111.662 254.015 110.879C253.77 109.175 253.46 108.087 253.149 106.999C253.083 106.844 253.017 106.689 252.969 106.283Z" fill="black"/>
<path d="M162.138 31.2743C162.463 30.8269 163.034 30.6208 163.819 30.1973C167.538 33.8762 174.01 34.9146 174.937 41.6706C174.648 42.5568 174.356 43.0694 174 43.8771C171.919 38.2806 166.951 35.0809 162.138 31.2743Z" fill="black"/>
<path d="M103.754 162.394C104.366 162.985 104.875 163.961 105.556 164.798C105.682 164.953 106.498 164.548 107.019 164.138C108.349 167.337 109.656 170.799 110.971 174.64C110.618 175.832 110.257 176.645 109.862 177.802C107.789 173.008 105.749 167.869 103.754 162.394Z" fill="black"/>
<path d="M112.109 194.084C112.604 198.87 113.068 204.119 113.315 209.725C112.759 204.903 112.418 199.726 112.109 194.084Z" fill="black"/>
<path d="M262.422 131.05C262.168 129.303 261.915 127.555 261.732 125.445C265.551 128.783 264.716 132.776 262.147 136.862C261.74 136.452 261.742 136.035 262.111 135.07C262.459 133.366 262.44 132.208 262.422 131.05Z" fill="black"/>
<path d="M97.6436 148.338C98.7643 149.974 99.8801 151.931 101.041 154.2C99.9371 152.561 98.7878 150.61 97.6436 148.338Z" fill="black"/>
<path d="M101.637 156.34C102.135 157.257 102.6 158.475 103.082 159.975C102.601 159.052 102.102 157.846 101.637 156.34Z" fill="black"/>
<path d="M94.7368 142.295C95.1927 142.673 95.5945 143.303 96.0382 144.16C95.6144 143.773 95.1485 143.16 94.7368 142.295Z" fill="black"/>
<path d="M168.758 90.0869C168.675 90.9172 168.261 91.8142 167.576 92.8464C167.679 92.039 168.053 91.0963 168.758 90.0869Z" fill="black"/>
<path d="M111.114 189.075C111.53 189.906 111.919 191.14 112.269 192.777C111.849 191.946 111.468 190.712 111.114 189.075Z" fill="black"/>
<path d="M96.6568 145.616C96.8532 145.718 96.957 145.985 97.0425 146.416C96.7886 146.37 96.6353 146.104 96.6568 145.616Z" fill="black"/>
<path d="M93.639 139.562C93.8311 139.662 93.9397 139.93 94.0362 140.361C93.7762 140.323 93.62 140.059 93.639 139.562Z" fill="black"/>
<path d="M207.207 162.679C207.194 162.433 207.395 162.105 207.745 161.802C207.831 162.141 207.674 162.398 207.207 162.679Z" fill="black"/>
<path d="M202.606 160.076C201.544 160.419 200.109 160.708 198.295 160.98C199.355 160.65 200.794 160.336 202.606 160.076Z" fill="black"/>
<path d="M210.608 159.052C209.526 159.377 208.063 159.677 206.211 159.954C207.29 159.63 208.758 159.328 210.608 159.052Z" fill="black"/>
<path d="M262.458 131.448C262.441 132.208 262.46 133.366 262.279 134.762C262.218 133.949 262.356 132.898 262.458 131.448Z" fill="black"/>
<path d="M254.086 112.358C254.424 113.143 254.715 114.288 254.97 115.798C254.635 115.014 254.337 113.866 254.086 112.358Z" fill="black"/>
<path d="M253.116 107.341C253.46 108.088 253.771 109.176 254.049 110.613C253.705 109.868 253.395 108.775 253.116 107.341Z" fill="black"/>
<path d="M184.646 164.101C183.909 164.429 182.832 164.728 181.408 165.023C182.144 164.703 183.225 164.387 184.646 164.101Z" fill="black"/>
<path d="M227.655 155.104C227.167 155.411 226.352 155.69 225.206 155.962C225.692 155.662 226.51 155.37 227.655 155.104Z" fill="black"/>
<path d="M222.644 156.178C222.175 156.467 221.387 156.724 220.281 156.977C220.75 156.698 221.537 156.422 222.644 156.178Z" fill="black"/>
<path d="M218.648 157.113C218.151 157.42 217.322 157.688 216.159 157.943C216.655 157.645 217.486 157.359 218.648 157.113Z" fill="black"/>
<path d="M188.656 163.104C188.178 163.411 187.374 163.691 186.243 163.968C186.72 163.668 187.525 163.372 188.656 163.104Z" fill="black"/>
<path d="M139.663 188.927C139.703 189.107 139.482 189.376 139.029 189.773C138.999 189.606 139.2 189.311 139.663 188.927Z" fill="black"/>
<path d="M138.634 189.897C138.689 190.086 138.484 190.369 138.055 190.79C138.012 190.616 138.193 190.304 138.634 189.897Z" fill="black"/>
<path d="M130.663 196.924C130.735 197.102 130.559 197.401 130.177 197.864C130.118 197.701 130.266 197.373 130.663 196.924Z" fill="black"/>
</svg>
